<mxfile host="app.diagrams.net" agent="Mozilla/5.0 (X11; Linux x86_64) AppleWebKit/537.36 (KHTML, like Gecko) Chrome/136.0.0.0 Safari/537.36" version="26.2.12">
  <diagram name="Page-1" id="jYxQsDxRD-8A5V3A2scU">
    <mxGraphModel dx="1428" dy="825" grid="0" gridSize="10" guides="1" tooltips="1" connect="1" arrows="1" fold="1" page="1" pageScale="1" pageWidth="827" pageHeight="1169" math="0" shadow="0">
      <root>
        <mxCell id="0" />
        <mxCell id="1" parent="0" />
        <mxCell id="HJKBNOG1gQndoPXstNbw-2" style="edgeStyle=orthogonalEdgeStyle;rounded=0;orthogonalLoop=1;jettySize=auto;html=1;entryX=0;entryY=0.5;entryDx=0;entryDy=0;entryPerimeter=0;" edge="1" parent="1" target="HJKBNOG1gQndoPXstNbw-3">
          <mxGeometry relative="1" as="geometry">
            <mxPoint x="220" y="224" as="targetPoint" />
            <mxPoint x="140" y="224" as="sourcePoint" />
          </mxGeometry>
        </mxCell>
        <mxCell id="HJKBNOG1gQndoPXstNbw-1" value="Start" style="ellipse;whiteSpace=wrap;html=1;aspect=fixed;fillColor=#fff2cc;strokeColor=#d6b656;" vertex="1" parent="1">
          <mxGeometry x="89" y="196" width="50" height="50" as="geometry" />
        </mxCell>
        <mxCell id="HJKBNOG1gQndoPXstNbw-13" style="edgeStyle=orthogonalEdgeStyle;rounded=0;orthogonalLoop=1;jettySize=auto;html=1;entryX=0.5;entryY=0;entryDx=0;entryDy=0;" edge="1" parent="1" source="HJKBNOG1gQndoPXstNbw-3" target="HJKBNOG1gQndoPXstNbw-12">
          <mxGeometry relative="1" as="geometry" />
        </mxCell>
        <mxCell id="HJKBNOG1gQndoPXstNbw-14" value="Yêu cầu tiêu" style="edgeLabel;html=1;align=center;verticalAlign=middle;resizable=0;points=[];" vertex="1" connectable="0" parent="HJKBNOG1gQndoPXstNbw-13">
          <mxGeometry x="-0.2667" y="2" relative="1" as="geometry">
            <mxPoint as="offset" />
          </mxGeometry>
        </mxCell>
        <mxCell id="HJKBNOG1gQndoPXstNbw-16" value="" style="edgeStyle=orthogonalEdgeStyle;rounded=0;orthogonalLoop=1;jettySize=auto;html=1;" edge="1" parent="1" source="HJKBNOG1gQndoPXstNbw-3" target="HJKBNOG1gQndoPXstNbw-15">
          <mxGeometry relative="1" as="geometry" />
        </mxCell>
        <mxCell id="HJKBNOG1gQndoPXstNbw-30" style="edgeStyle=orthogonalEdgeStyle;rounded=0;orthogonalLoop=1;jettySize=auto;html=1;dashed=1;strokeColor=#FF3333;exitX=0.5;exitY=1;exitDx=0;exitDy=0;" edge="1" parent="1" source="HJKBNOG1gQndoPXstNbw-3" target="HJKBNOG1gQndoPXstNbw-29">
          <mxGeometry relative="1" as="geometry" />
        </mxCell>
        <mxCell id="HJKBNOG1gQndoPXstNbw-31" value="X" style="edgeLabel;html=1;align=center;verticalAlign=middle;resizable=0;points=[];" vertex="1" connectable="0" parent="HJKBNOG1gQndoPXstNbw-30">
          <mxGeometry x="0.2035" relative="1" as="geometry">
            <mxPoint as="offset" />
          </mxGeometry>
        </mxCell>
        <mxCell id="HJKBNOG1gQndoPXstNbw-3" value="Giao dịch ti&lt;span style=&quot;background-color: transparent; color: light-dark(rgb(0, 0, 0), rgb(255, 255, 255));&quot;&gt;êu&lt;/span&gt;" style="rounded=0;whiteSpace=wrap;html=1;" vertex="1" parent="1">
          <mxGeometry x="220" y="194" width="90" height="60" as="geometry" />
        </mxCell>
        <mxCell id="HJKBNOG1gQndoPXstNbw-5" value="" style="endArrow=none;html=1;rounded=0;" edge="1" parent="1">
          <mxGeometry width="50" height="50" relative="1" as="geometry">
            <mxPoint x="40" y="160" as="sourcePoint" />
            <mxPoint x="680" y="158" as="targetPoint" />
          </mxGeometry>
        </mxCell>
        <mxCell id="HJKBNOG1gQndoPXstNbw-6" value="" style="endArrow=none;html=1;rounded=0;" edge="1" parent="1">
          <mxGeometry width="50" height="50" relative="1" as="geometry">
            <mxPoint x="39" y="372" as="sourcePoint" />
            <mxPoint x="678" y="372" as="targetPoint" />
          </mxGeometry>
        </mxCell>
        <mxCell id="HJKBNOG1gQndoPXstNbw-7" value="" style="endArrow=none;html=1;rounded=0;" edge="1" parent="1">
          <mxGeometry width="50" height="50" relative="1" as="geometry">
            <mxPoint x="40" y="538" as="sourcePoint" />
            <mxPoint x="679" y="538" as="targetPoint" />
          </mxGeometry>
        </mxCell>
        <mxCell id="HJKBNOG1gQndoPXstNbw-8" value="" style="endArrow=none;html=1;rounded=0;" edge="1" parent="1">
          <mxGeometry width="50" height="50" relative="1" as="geometry">
            <mxPoint x="40" y="540" as="sourcePoint" />
            <mxPoint x="40" y="160" as="targetPoint" />
          </mxGeometry>
        </mxCell>
        <mxCell id="HJKBNOG1gQndoPXstNbw-9" value="" style="endArrow=none;html=1;rounded=0;" edge="1" parent="1">
          <mxGeometry width="50" height="50" relative="1" as="geometry">
            <mxPoint x="80" y="537" as="sourcePoint" />
            <mxPoint x="80" y="160" as="targetPoint" />
          </mxGeometry>
        </mxCell>
        <mxCell id="HJKBNOG1gQndoPXstNbw-10" value="GSM" style="text;html=1;align=center;verticalAlign=middle;resizable=0;points=[];autosize=1;strokeColor=none;fillColor=none;rotation=-90;" vertex="1" parent="1">
          <mxGeometry x="35" y="228" width="50" height="30" as="geometry" />
        </mxCell>
        <mxCell id="HJKBNOG1gQndoPXstNbw-11" value="VinClub" style="text;html=1;align=center;verticalAlign=middle;resizable=0;points=[];autosize=1;strokeColor=none;fillColor=none;rotation=-90;" vertex="1" parent="1">
          <mxGeometry x="27" y="413" width="70" height="30" as="geometry" />
        </mxCell>
        <mxCell id="HJKBNOG1gQndoPXstNbw-12" value="Giao dịch tiêu" style="rounded=0;whiteSpace=wrap;html=1;" vertex="1" parent="1">
          <mxGeometry x="220" y="392" width="90" height="60" as="geometry" />
        </mxCell>
        <mxCell id="HJKBNOG1gQndoPXstNbw-18" style="edgeStyle=orthogonalEdgeStyle;rounded=0;orthogonalLoop=1;jettySize=auto;html=1;" edge="1" parent="1" source="HJKBNOG1gQndoPXstNbw-15" target="HJKBNOG1gQndoPXstNbw-17">
          <mxGeometry relative="1" as="geometry" />
        </mxCell>
        <mxCell id="HJKBNOG1gQndoPXstNbw-19" value="Yêu cầu hoàn tiêu" style="edgeLabel;html=1;align=center;verticalAlign=middle;resizable=0;points=[];" vertex="1" connectable="0" parent="HJKBNOG1gQndoPXstNbw-18">
          <mxGeometry x="-0.2698" y="1" relative="1" as="geometry">
            <mxPoint as="offset" />
          </mxGeometry>
        </mxCell>
        <mxCell id="HJKBNOG1gQndoPXstNbw-15" value="Giao dịch hoàn ti&lt;span style=&quot;background-color: transparent; color: light-dark(rgb(0, 0, 0), rgb(255, 255, 255));&quot;&gt;êu&lt;/span&gt;" style="rounded=0;whiteSpace=wrap;html=1;" vertex="1" parent="1">
          <mxGeometry x="478" y="194" width="95" height="60" as="geometry" />
        </mxCell>
        <mxCell id="HJKBNOG1gQndoPXstNbw-17" value="Giao dịch hoàn tiêu" style="rounded=0;whiteSpace=wrap;html=1;" vertex="1" parent="1">
          <mxGeometry x="480.5" y="395" width="90" height="60" as="geometry" />
        </mxCell>
        <mxCell id="HJKBNOG1gQndoPXstNbw-20" value="" style="endArrow=none;dashed=1;html=1;dashPattern=1 3;strokeWidth=2;rounded=0;" edge="1" parent="1">
          <mxGeometry width="50" height="50" relative="1" as="geometry">
            <mxPoint x="430" y="534" as="sourcePoint" />
            <mxPoint x="428" y="158" as="targetPoint" />
          </mxGeometry>
        </mxCell>
        <mxCell id="HJKBNOG1gQndoPXstNbw-22" value="" style="endArrow=none;html=1;rounded=0;" edge="1" parent="1">
          <mxGeometry width="50" height="50" relative="1" as="geometry">
            <mxPoint x="41" y="180" as="sourcePoint" />
            <mxPoint x="679" y="180" as="targetPoint" />
          </mxGeometry>
        </mxCell>
        <mxCell id="HJKBNOG1gQndoPXstNbw-23" value="Day T-1" style="edgeLabel;html=1;align=center;verticalAlign=middle;resizable=0;points=[];" vertex="1" connectable="0" parent="HJKBNOG1gQndoPXstNbw-22">
          <mxGeometry x="-0.4667" y="3" relative="1" as="geometry">
            <mxPoint as="offset" />
          </mxGeometry>
        </mxCell>
        <mxCell id="HJKBNOG1gQndoPXstNbw-24" value="Day T" style="edgeLabel;html=1;align=center;verticalAlign=middle;resizable=0;points=[];" vertex="1" connectable="0" parent="HJKBNOG1gQndoPXstNbw-22">
          <mxGeometry x="0.3033" y="3" relative="1" as="geometry">
            <mxPoint x="94" y="-1" as="offset" />
          </mxGeometry>
        </mxCell>
        <mxCell id="HJKBNOG1gQndoPXstNbw-25" value="" style="image;sketch=0;aspect=fixed;html=1;points=[];align=center;fontSize=12;image=img/lib/mscae/SAP_HANA_on_Azure.svg;" vertex="1" parent="1">
          <mxGeometry x="250" y="485" width="50" height="25" as="geometry" />
        </mxCell>
        <mxCell id="HJKBNOG1gQndoPXstNbw-26" style="edgeStyle=orthogonalEdgeStyle;rounded=0;orthogonalLoop=1;jettySize=auto;html=1;entryX=0.3;entryY=0.04;entryDx=0;entryDy=0;entryPerimeter=0;" edge="1" parent="1" source="HJKBNOG1gQndoPXstNbw-12" target="HJKBNOG1gQndoPXstNbw-25">
          <mxGeometry relative="1" as="geometry" />
        </mxCell>
        <mxCell id="HJKBNOG1gQndoPXstNbw-27" value="" style="image;sketch=0;aspect=fixed;html=1;points=[];align=center;fontSize=12;image=img/lib/mscae/SAP_HANA_on_Azure.svg;" vertex="1" parent="1">
          <mxGeometry x="505" y="487" width="50" height="25" as="geometry" />
        </mxCell>
        <mxCell id="HJKBNOG1gQndoPXstNbw-28" style="edgeStyle=orthogonalEdgeStyle;rounded=0;orthogonalLoop=1;jettySize=auto;html=1;entryX=0.42;entryY=0.12;entryDx=0;entryDy=0;entryPerimeter=0;" edge="1" parent="1" source="HJKBNOG1gQndoPXstNbw-17" target="HJKBNOG1gQndoPXstNbw-27">
          <mxGeometry relative="1" as="geometry" />
        </mxCell>
        <mxCell id="HJKBNOG1gQndoPXstNbw-29" value="" style="image;sketch=0;aspect=fixed;html=1;points=[];align=center;fontSize=12;image=img/lib/mscae/SAP_HANA_on_Azure.svg;" vertex="1" parent="1">
          <mxGeometry x="349" y="293" width="50" height="25" as="geometry" />
        </mxCell>
        <mxCell id="HJKBNOG1gQndoPXstNbw-32" style="edgeStyle=orthogonalEdgeStyle;rounded=0;orthogonalLoop=1;jettySize=auto;html=1;dashed=1;strokeColor=#FF3333;exitX=0.5;exitY=1;exitDx=0;exitDy=0;" edge="1" parent="1" source="HJKBNOG1gQndoPXstNbw-15" target="HJKBNOG1gQndoPXstNbw-34">
          <mxGeometry relative="1" as="geometry">
            <mxPoint x="564" y="270" as="sourcePoint" />
            <mxPoint x="619" y="311" as="targetPoint" />
          </mxGeometry>
        </mxCell>
        <mxCell id="HJKBNOG1gQndoPXstNbw-33" value="X" style="edgeLabel;html=1;align=center;verticalAlign=middle;resizable=0;points=[];" vertex="1" connectable="0" parent="HJKBNOG1gQndoPXstNbw-32">
          <mxGeometry x="0.2035" relative="1" as="geometry">
            <mxPoint as="offset" />
          </mxGeometry>
        </mxCell>
        <mxCell id="HJKBNOG1gQndoPXstNbw-34" value="" style="image;sketch=0;aspect=fixed;html=1;points=[];align=center;fontSize=12;image=img/lib/mscae/SAP_HANA_on_Azure.svg;" vertex="1" parent="1">
          <mxGeometry x="617" y="293" width="50" height="25" as="geometry" />
        </mxCell>
        <mxCell id="HJKBNOG1gQndoPXstNbw-35" value="" style="endArrow=none;html=1;rounded=0;" edge="1" parent="1">
          <mxGeometry width="50" height="50" relative="1" as="geometry">
            <mxPoint x="679" y="538" as="sourcePoint" />
            <mxPoint x="679" y="158" as="targetPoint" />
          </mxGeometry>
        </mxCell>
      </root>
    </mxGraphModel>
  </diagram>
</mxfile>
